<?xml version="1.0" encoding="utf-8"?>
<!-- Generator: Adobe Illustrator 18.0.0, SVG Export Plug-In . SVG Version: 6.00 Build 0)  -->
<!DOCTYPE svg PUBLIC "-//W3C//DTD SVG 1.1//EN" "http://www.w3.org/Graphics/SVG/1.1/DTD/svg11.dtd">
<svg width="20" height="20" version="1.1" id="Layer_1" xmlns="http://www.w3.org/2000/svg" xmlns:xlink="http://www.w3.org/1999/xlink" x="0px" y="0px"
	 viewBox="0 0 20 20" enable-background="new 0 0 20 20" xml:space="preserve">
<g>
	<path fill="#856363" d="M16,18.1c1,0,1.8-0.8,1.8-1.8V4.5c0-1-0.8-1.8-1.8-1.8H4.6c-1,0-1.8,0.8-1.8,1.8v11.7c0,1,0.8,1.8,1.8,1.8
		H16V18.1z"/>
</g>
<path fill="#E6E2DD" d="M4.8,4.2c4.1,4.2,6.8,6.8,8.6,8.5c0.1-1.3-0.4-2.8-0.4-2.8l-0.8,0l0-0.8C7.2,3.9,4.8,4.2,4.8,4.2"/>
<path fill="#E6E2DD" d="M4.8,4.2C4.7,8.2,9.2,12,9.2,12l0.8,0l0,0.8c0.6,0.4,1.9,0.3,2.8,0.2c1,1,2.1,1.9,3,2.7l0.8,0.1
	c0,0-1.3-0.8-7.1-6.5C6.9,6.5,4.8,4.2,4.8,4.2"/>
</svg>
